<svg width="16" height="16" viewBox="0 0 16 16" fill="none" xmlns="http://www.w3.org/2000/svg">
<path fill-rule="evenodd" clip-rule="evenodd" d="M5.90718 3.1957C5.21566 3.1957 4.52477 3.44573 3.99826 3.94642C3.49443 4.42633 3.21669 5.06305 3.21669 5.73945C3.21669 6.41523 3.49443 7.05195 3.99826 7.53186L8.25506 11.5827L12.5119 7.53186C13.0157 7.05195 13.2934 6.41523 13.2934 5.73945C13.2934 5.06368 13.0157 4.42633 12.5119 3.94642C11.4595 2.94505 9.74642 2.94505 8.69403 3.94642L8.25506 4.36461L7.81609 3.94642C7.28958 3.44573 6.59869 3.1957 5.90718 3.1957ZM8.25506 13.3021L3.12033 8.41546C2.37024 7.7019 1.95709 6.75154 1.95709 5.73945C1.95709 4.72737 2.37024 3.77701 3.12033 3.06282C4.51848 1.73206 6.71332 1.6124 8.25506 2.70194C9.7968 1.6124 11.9916 1.73206 13.3898 3.06282C14.1399 3.77701 14.553 4.72737 14.553 5.73945C14.553 6.75154 14.1399 7.7019 13.3898 8.41546L8.25506 13.3021Z" fill="black"/>
</svg>
